<svg xmlns="http://www.w3.org/2000/svg" width="1384.338" height="769.711" viewBox="0 0 1384.338 769.711">
  <g id="SVG" transform="translate(0.162 15.334)">
    <path id="Tracé_1" data-name="Tracé 1" d="M3925.828,423.377c-11.89,0-24.287-.468-37.827-1.426-12.676-.9-26.036-2.2-40.842-4-27.428-3.32-55.257-7.773-82.169-12.078-25.9-4.143-50.355-8.057-73.932-10.938A403.841,403.841,0,0,1,3619.3,379.8c-21.272-6.683-40.417-15.02-56.9-24.782-16.214-9.6-29.671-20.465-40-32.292-10.365-11.869-17.436-24.547-21.017-37.68a76.284,76.284,0,0,1-2.419-26.931,85.034,85.034,0,0,1,7.505-27.664c8.73-19.175,24.567-37.645,47.07-54.9a173.448,173.448,0,0,0,19.059-16.894,142.679,142.679,0,0,0,14.655-17.742,117.19,117.19,0,0,0,17.283-36.909c6.21-23.506,4.37-48.326-5.322-71.778a125.592,125.592,0,0,0-44.763-55.39,103.661,103.661,0,0,0-31.01-14.5,84.66,84.66,0,0,0-33.34-2.447,109.887,109.887,0,0,0-20.149,4.664,158.042,158.042,0,0,0-19.242,7.83c-12.558,6.021-24.58,13.374-36.206,20.485-14.289,8.74-27.786,17-41.1,22.126a74.128,74.128,0,0,1-19.838,4.952,51.856,51.856,0,0,1-9.837,0,47.842,47.842,0,0,1-9.8-2.016,55.6,55.6,0,0,1-16.031-8.355,90.978,90.978,0,0,1-16.054-15.609,173.942,173.942,0,0,1-16.2-24.006,337.052,337.052,0,0,1-16.485-33.571,248.982,248.982,0,0,0-14.459-28.555,207.491,207.491,0,0,0-16.343-23.714,181.874,181.874,0,0,0-17.837-19.291,168.767,168.767,0,0,0-18.944-15.284c-22.851-15.831-49.469-25.706-79.114-29.349a220.471,220.471,0,0,0-36.124-1.37,243.128,243.128,0,0,0-29.674,3.109,191.746,191.746,0,0,0-27.49,6.451l-.324-.946a192.666,192.666,0,0,1,27.614-6.485,244.157,244.157,0,0,1,29.793-3.126,221.5,221.5,0,0,1,36.292,1.37c29.814,3.658,56.588,13.587,79.579,29.511a169.8,169.8,0,0,1,19.062,15.375,182.881,182.881,0,0,1,17.941,19.4,208.523,208.523,0,0,1,16.427,23.833A250.014,250.014,0,0,1,3270.067-64a336.065,336.065,0,0,0,16.435,33.47,172.957,172.957,0,0,0,16.107,23.868,89.991,89.991,0,0,0,15.874,15.439,54.6,54.6,0,0,0,15.741,8.207,46.859,46.859,0,0,0,9.6,1.974,50.867,50.867,0,0,0,9.647,0,73.15,73.15,0,0,0,19.571-4.889c13.227-5.1,26.686-13.33,40.935-22.046,11.647-7.124,23.691-14.491,36.3-20.534a159.048,159.048,0,0,1,19.363-7.879,110.868,110.868,0,0,1,20.331-4.7,85.646,85.646,0,0,1,33.732,2.474,104.65,104.65,0,0,1,31.31,14.642,126.6,126.6,0,0,1,45.125,55.835,117.677,117.677,0,0,1,8.6,35.108,109.7,109.7,0,0,1-3.24,37.307,118.194,118.194,0,0,1-17.428,37.224,143.675,143.675,0,0,1-14.758,17.867,174.466,174.466,0,0,1-19.17,16.992c-22.372,17.152-38.107,35.494-46.768,54.518a84.044,84.044,0,0,0-7.419,27.339,75.283,75.283,0,0,0,2.388,26.579c3.542,12.987,10.542,25.531,20.806,37.285s23.633,22.543,39.755,32.089c33.563,19.873,77.92,33.631,128.276,39.785,23.6,2.884,48.064,6.8,73.969,10.943,53.75,8.6,109.314,17.489,160.716,17.489.642,0,1.275,0,1.916,0a359.494,359.494,0,0,0,37.945-2.059,249.477,249.477,0,0,0,35.5-6.44,182.04,182.04,0,0,0,32.389-11.721,152.854,152.854,0,0,0,14.818-8.122,142.5,142.5,0,0,0,13.791-9.78,139.134,139.134,0,0,0,12.708-11.579,142.876,142.876,0,0,0,11.511-13.475,154.414,154.414,0,0,0,10.232-15.488,174.617,174.617,0,0,0,8.868-17.618,205.2,205.2,0,0,0,7.419-19.865c2.23-7.038,4.21-14.516,5.883-22.227a340.38,340.38,0,0,0,6.817-52c.822-14.08,1.991-27.6,3.474-40.189,1.437-12.2,3.208-23.852,5.264-34.641,1.989-10.437,4.3-20.351,6.868-29.467a249.515,249.515,0,0,1,8.285-24.666,177.174,177.174,0,0,1,9.519-20.237,128.656,128.656,0,0,1,10.567-16.181,98.273,98.273,0,0,1,11.43-12.491,81.324,81.324,0,0,1,12.1-9.167A74.477,74.477,0,0,1,4208,37.937a77.739,77.739,0,0,1,15.169-3.532,90.831,90.831,0,0,1,15.193-.655,113.42,113.42,0,0,1,14.906,1.607c19.53,3.376,37.525,11.155,50.665,16.835,2.892,1.25,5.622,2.43,8.037,3.418a55.051,55.051,0,0,0,10.924,3.121,75.864,75.864,0,0,0,12.231,1.171,100.84,100.84,0,0,0,26.113-3.141c18.581-4.7,34.244-13.949,42.971-25.37,8.256-10.8,14.285-28.657-3.884-52.356-18.6-24.264-46.324-31.189-75.612-31.189-21.276,0-43.376,3.652-63.419,6.964-8.959,1.48-17.421,2.879-25.2,3.847a127.705,127.705,0,0,1-21.007,1.238c-3.71-.161-8.882-.268-15.43-.4-35.523-.731-109.44-2.251-181.214-17.772A473.183,473.183,0,0,1,3965.6-72.757a306.784,306.784,0,0,1-48.332-20.983,216.128,216.128,0,0,1-21.3-13.324,172.009,172.009,0,0,1-18.759-15.424,141.539,141.539,0,0,1-15.743-17.682,124.355,124.355,0,0,1-12.25-20.1,152.386,152.386,0,0,1-11.092-29.965,95.8,95.8,0,0,1-2.893-25.729,74.644,74.644,0,0,1,4-21.99,78.028,78.028,0,0,1,9.571-18.734,104.2,104.2,0,0,1,13.787-15.983,159.181,159.181,0,0,1,16.664-13.761c11.765-8.547,24.415-15.888,36.649-22.987,10.684-6.2,20.775-12.055,29.093-18.067a87.724,87.724,0,0,0,10.957-9.164,40.415,40.415,0,0,0,7.345-9.69l.887.463a41.4,41.4,0,0,1-7.522,9.931,88.7,88.7,0,0,1-11.081,9.27c-8.358,6.041-18.47,11.909-29.177,18.122-23.934,13.888-51.061,29.629-66.779,52.433-18.071,26.219-17.912,57.429.487,95.414,23.336,48.178,80.039,82.309,168.535,101.445,71.679,15.5,145.531,17.019,181.023,17.75,6.554.135,11.73.241,15.452.4a126.76,126.76,0,0,0,20.841-1.231c7.764-.966,16.216-2.362,25.165-3.841,23.693-3.915,50.55-8.353,75.526-6.532a124.249,124.249,0,0,1,18.332,2.649,91.725,91.725,0,0,1,17.176,5.645,75.741,75.741,0,0,1,15.541,9.285,74.767,74.767,0,0,1,13.415,13.556c7.679,10.016,11.728,19.917,12.035,29.429a35.366,35.366,0,0,1-1.959,12.829A40.812,40.812,0,0,1,4405.007,32a54.709,54.709,0,0,1-8.328,8.621,72.952,72.952,0,0,1-10.4,7.223,91.489,91.489,0,0,1-11.917,5.735,104.292,104.292,0,0,1-12.871,4.154,102.652,102.652,0,0,1-24.837,3.185q-.773,0-1.539-.014a76.856,76.856,0,0,1-12.394-1.187,56.061,56.061,0,0,1-11.124-3.179c-2.423-.991-5.158-2.174-8.054-3.426-13.094-5.661-31.026-13.413-50.439-16.768a112.419,112.419,0,0,0-14.773-1.593,89.782,89.782,0,0,0-15.025.648,76.749,76.749,0,0,0-14.974,3.486,73.472,73.472,0,0,0-14.629,6.926,80.335,80.335,0,0,0-11.955,9.054,97.253,97.253,0,0,0-11.312,12.364,127.725,127.725,0,0,0-10.484,16.054,176.169,176.169,0,0,0-9.464,20.123,248.635,248.635,0,0,0-8.251,24.566c-2.56,9.088-4.864,18.973-6.848,29.383-2.052,10.766-3.819,22.4-5.253,34.571-1.48,12.568-2.647,26.07-3.468,40.131a341.457,341.457,0,0,1-6.837,52.156c-1.68,7.742-3.667,15.25-5.908,22.318a206.074,206.074,0,0,1-7.456,19.962,175.59,175.59,0,0,1-8.919,17.72,155.347,155.347,0,0,1-10.3,15.589,143.871,143.871,0,0,1-11.593,13.57,140.1,140.1,0,0,1-12.8,11.663,143.543,143.543,0,0,1-13.887,9.849,153.876,153.876,0,0,1-14.915,8.175,183.053,183.053,0,0,1-32.567,11.786,250.443,250.443,0,0,1-35.647,6.467,360.521,360.521,0,0,1-38.051,2.065Q3926.808,423.377,3925.828,423.377Z" transform="translate(-3029 331)" fill="#e5e5e5"/>
    <circle id="Ellipse_5" data-name="Ellipse 5" cx="5.5" cy="5.5" r="5.5" transform="translate(50 144)" fill="#f8ba35"/>
    <circle id="Ellipse_10" data-name="Ellipse 10" cx="4.5" cy="4.5" r="4.5" transform="translate(1182 286)" fill="#eb1974"/>
  </g>
</svg>
