<svg xmlns="http://www.w3.org/2000/svg" xmlns:xlink="http://www.w3.org/1999/xlink" width="37" height="37" viewBox="0 0 37 37">
  <defs>
    <linearGradient id="linear-gradient" x1="0.095" y1="0.122" x2="1.27" y2="1.081" gradientUnits="objectBoundingBox">
      <stop offset="0" stop-color="#eb1974"/>
      <stop offset="1" stop-color="#f6a740"/>
    </linearGradient>
  </defs>
  <g id="Tel" transform="translate(-3287 464)">
    <circle id="Ellipse_11" data-name="Ellipse 11" cx="18.5" cy="18.5" r="18.5" transform="translate(3287 -464)" fill="url(#linear-gradient)"/>
    <path id="Ellipse_11_-_Contour" data-name="Ellipse 11 - Contour" d="M18.5,2A16.5,16.5,0,0,0,6.833,30.167,16.5,16.5,0,1,0,30.167,6.833,16.392,16.392,0,0,0,18.5,2m0-2A18.5,18.5,0,1,1,0,18.5,18.5,18.5,0,0,1,18.5,0Z" transform="translate(3287 -464)" fill="#fff"/>
    <g id="phone-fill" transform="translate(3294 -457)">
      <path id="Tracé_2" data-name="Tracé 2" d="M0,0H24V24H0Z" fill="none"/>
      <path id="Tracé_3" data-name="Tracé 3" d="M21,16.42v3.536a1,1,0,0,1-.93,1c-.437.03-.794.046-1.07.046A16,16,0,0,1,3,5q0-.414.046-1.07a1,1,0,0,1,1-.93H7.58a.5.5,0,0,1,.5.45c.023.23.044.413.064.552A13.9,13.9,0,0,0,9.35,8,.456.456,0,0,1,9.2,8.57L7.045,10.112a13.047,13.047,0,0,0,6.844,6.844l1.54-2.154A.462.462,0,0,1,16,14.653a13.9,13.9,0,0,0,4,1.2c.139.02.322.042.55.064a.5.5,0,0,1,.449.5Z" fill="#fff"/>
    </g>
  </g>
</svg>
